# xmcd
#
# Track frame offsets: 
#        150
#        10345
#        26996
#        40544
#        49043
#        67852
#        84431
#        89412
#        97813
#        122382
#        145914
#
# Disc length: 2199 seconds
#
# Revision: 0
# Processed by: cddbd v1.5.1PL0 Copyright (c) Steve Scherf et al.
# Submitted via: ExactAudioCopy v0.95a5
#
DISCID=7e08950b
DTITLE=Richard Easton - Two Thousand Demolition Songs
DYEAR=2004
DGENRE=Acoustic
TTITLE0=P.Tree
TTITLE1=Former
TTITLE2=Evil 1
TTITLE3=Tellbowls
TTITLE4=Coffin
TTITLE5=Ballad of Betty Cole
TTITLE6=Evil 2
TTITLE7=Instrum 5
TTITLE8=The Underground Sea
TTITLE9=William - James
TTITLE10=Doug
EXTD=
EXTT0=
EXTT1=
EXTT2=
EXTT3=
EXTT4=
EXTT5=
EXTT6=
EXTT7=
EXTT8=
EXTT9=
EXTT10=
PLAYORDER=
